<svg xmlns="http://www.w3.org/2000/svg" xmlns:xlink="http://www.w3.org/1999/xlink" version="1.1" id="Layer_1" x="0px" y="0px" style="enable-background:new 0 0 5000 3498.3;" xml:space="preserve" viewBox="1260.6 568 2478.8 2478.8">
<style type="text/css">
	.st0{fill:#1A1D53;}
	.st1{fill:#25C998;}
</style>
<g transform="rotate(0 478.8084 206.8632)">
	<path class="st0" d="M2500,568L2500,568c684.5,0,1239.4,554.9,1239.4,1239.4l0,0c0,684.5-554.9,1239.4-1239.4,1239.4l0,0   c-684.5,0-1239.4-554.9-1239.4-1239.4l0,0C1260.6,1122.9,1815.5,568,2500,568z"/>
</g>
<g transform="rotate(0 507.0115 233.8417)">
	<g transform="matrix(1 0 0 1 0 0)">
		<g>
			<path class="st1" d="M2947.3,1722.3c-1.9,0-3.8-0.2-5.7-0.6c-14.1-3.1-23.1-17.1-20-31.2c0.3-1.5,14.4-72.4-16.4-199.5     c-1.5-6.5-33.6-149-46.1-223.5c-0.1-0.4-32.5-151.4-61.4-205.5c-3.6-6.8-6.7-11.9-9.2-15.9c-3.5,11.5-7.9,31.6-11.9,66.5     c-1.7,14.4-14.7,25-29.1,23.1c-14.4-1.7-24.7-14.7-23.1-29.1c9.7-84.2,24.3-117.6,53.6-123.1c34-6.5,55.7,34.2,66.2,53.8     c32.4,60.6,65.3,213.9,66.7,220.4c12.5,74.1,45.3,219.9,45.7,221.3c34.1,140.6,17.3,219.5,16.6,222.8     C2970.2,1714,2959.3,1722.3,2947.3,1722.3z"/>
			<g>
				<g>
					<path class="st1" d="M2136.4,1762.3c27.6,40.2,128,169,297.8,191.4c111.7,14.7,143,30.8,155.3,50.2c10.5,16.6,5,34.2,0.3,49.4       c-2.9,9.5-6,19.4-6,29.4c0,56.8,0,207.9-146.9,225.8l-1.8,0.3l-1.6-0.3c-0.5,0-42.3-6-85.4-6c-18.1,0-32.3,1.1-43.6,2.6       c-12.1-13.7-20.5-21-21.8-22.1l-0.3-0.3c17.1-4.5,39.2-6.6,65.7-6.6c40.2,0,78.6,5,87.3,6c122.2-16,122.2-144.6,122.2-199.5       c0-14.2,3.9-26.3,7.4-37.3c4.2-13.4,6.3-21.3,2.6-27.3c-14.2-22.3-106.5-34.4-136.7-38.4c-183.7-23.9-288.1-160.6-316.7-203.7       C2123.3,1771.6,2130.7,1767.1,2136.4,1762.3z"/>
					<path class="st1" d="M1956.4,1829.9c-56.2,20.5-119.3,43.6-166.4,54.7c-6.6-3.9-12.6-6.8-17.6-9.2c0.8-0.5,1.6-0.5,2.4-0.8       c47.1-9.5,116.2-34.7,177.2-57.1c45.5-16.6,88.3-32.3,113.3-38.4c13.1-2.9,25-6.8,35.7-11.3l8.7,1.1c1.3,1.8,2.6,4.2,4.5,7.1       c-1.3,0.8-2.9,1.3-4.2,2.1c-12.1,5.5-26.3,10.3-41.5,13.9C2043.9,1797.8,2001.3,1813.3,1956.4,1829.9z"/>
					<path class="st1" d="M1781.1,2101.4c2.4,0,5.2,0.3,8.4,0.3c25.2,0,59.7-5.5,80.2-31.6c10-12.6,20-35.2,11.3-71       c-14.7-60.7-59.4-96.5-90.9-114.6c47-11,110.1-34.2,166.4-54.7c45-16.6,87.5-32.1,112-37.8c15.3-3.7,29.4-8.4,41.5-13.9       c1.3-0.8,2.9-1.3,4.2-2.1c28.6,43.1,133,179.8,316.7,203.7c30.2,3.9,122.5,16,136.7,38.4c3.7,6,1.6,13.9-2.6,27.3       c-3.4,11-7.4,23.1-7.4,37.3c0,54.9,0,183.5-122.2,199.5c-8.7-1.1-47.1-6-87.3-6c-26.6,0-48.6,2.1-65.7,6.6l-7.6-6.6l-10.5,0.5       c-138.3,5.8-390.3-1.8-522-121.4c-3.4-3.2-6.6-6-9.2-9.2c6.6-2.1,10.8-5.3,12.4-6.3C1759,2129.3,1773.7,2116.4,1781.1,2101.4z"/>
					<path class="st1" d="M1777.4,1887.5c-2.1,0.5-4.2,1.1-6.3,1.8c-7.3-3.7-13.1-6-16-7.1c6-3.2,11.8-5.8,17.3-6.8       c5,2.4,11,5.2,17.6,9.2C1785.5,1885.6,1781.3,1886.7,1777.4,1887.5z"/>
					<path class="st1" d="M1716.6,2148.2c-5-5.8-9.7-11.6-13.9-17.3c5.2,2.9,10.8,4.5,16.6,4.5c1.3,0,2.4,0,3.4-0.3       c3.2,3.7,6.3,7.3,10,11c-3.7,1.6-8.4,2.4-13.4,2.4C1718.5,2148.5,1717.4,2148.5,1716.6,2148.2z"/>
					<path class="st1" d="M1733.2,2165c-6-5.5-11.6-11-16.6-16.8c0.8,0.3,1.8,0.3,2.7,0.3c5,0,9.7-0.8,13.4-2.4       c0.3,0.3,0.3,0.3,0.3,0c2.6,3.1,5.8,6,9.2,9.2c131.7,119.6,383.8,127.2,522,121.4l10.5-0.5l7.6,6.6c-7.9,2.1-14.7,4.5-20.5,7.4       c-18.9,0.8-39.7,1-61.8,1C2050.5,2291.2,1848.4,2269.4,1733.2,2165z"/>
					<path class="st1" d="M1701.4,1891.9c20.5-22.3,44.4-38.1,68.1-43.1c45.2-9.2,113.3-33.9,173.5-56c46-16.8,89.6-32.9,116.2-39.2       c12.9-2.9,24.5-6.8,34.2-11.3l3.7-1.8l28.6,4.2l3.2,5.5c0.3,0.3,2.9,4.7,7.6,12.1c-5.8,4.7-13.1,9.2-22.4,13.7       c-1.8-2.9-3.2-5.3-4.5-7.1l-8.7-1.1c-10.8,4.5-22.6,8.4-35.7,11.3c-25,6-67.8,21.8-113.3,38.4c-61,22.3-130.1,47.6-177.2,57.1       c-0.8,0.3-1.6,0.3-2.4,0.8c-8.4-3.9-13.9-6-15-6.3l-9.2-3.1l-8.9,3.7C1728.2,1874.1,1714.6,1881.7,1701.4,1891.9z"/>
					<path class="st1" d="M1684.3,2031c-9.5-56,19.2-90.4,42.6-108.6c-15.5,17.9-29.2,41.5-36.8,68.9       C1687.2,2001.8,1684.6,2015.5,1684.3,2031z"/>
					<path class="st1" d="M1722.7,2135.1c-31-36.8-38.9-74.1-38.4-104.1c0.3,2.1,0.5,4.2,1.1,6.3c14.7,71,33.1,71.8,33.9,71.8       c26.8-19.7,27.3-27.6,27.3-27.6c-1.3-1.3-10-3.9-13.1-5c-7.1-2.1-16.8-5.3-17.6-15.5c-0.3-3.7,0.5-10.8,10-15.5       c4.7-2.4,9.7-3.4,15.2-3.4c17.6,0,33.9,13.2,41,20c1.8,0,4.5,0.3,7.3,0.3c10.8,0,37.6-1.8,49.1-16.5c6.6-8.4,8.2-20.8,3.9-37.3       c-15.2-63.1-76-92.8-93.1-100.1c-5,2.4-13.4,7.1-22.6,14.2c14.2-16.6,30.2-28.4,44.2-33.1c28.4,13.9,81.5,48.4,97.2,113       c5.8,24.5,2.9,44.7-8.9,59.7c-17.1,21.8-47.6,26.5-69.9,26.5c-8.9,0-15-0.8-15-0.8l-2.1-0.3c-2.7,12.1-13.9,25.5-35,42.1       C1736.4,2130.3,1730.9,2134.3,1722.7,2135.1z"/>
					<path class="st1" d="M1644.9,2033.9c0-20.8,3.4-38.9,7.3-52.8c9.2-33.6,27.1-64.9,48.6-88.6c0,0,0.3-0.3,0.5-0.5       c13.2-10.3,26.8-17.9,37.9-22.3l8.9-3.7l9.2,3.1c1.1,0.3,6.6,2.4,15,6.3c-5.5,1.1-11.3,3.7-17.3,6.8c2.9,1.1,8.7,3.4,16,7.1       c-13.9,4.7-30,16.6-44.2,33.1c-23.4,18.1-52.1,52.6-42.6,108.6c-0.5,30,7.3,67.3,38.4,104.1c-1.1,0.3-2.1,0.3-3.4,0.3       c-5.8,0-11.3-1.6-16.6-4.5c4.2,5.8,8.9,11.6,13.9,17.3c-48.9-2.4-64.7-77.8-69.9-102.8c-0.8-3.7-1.3-7.4-1.8-10.8       C1644.6,2034.4,1644.6,2034.1,1644.9,2033.9z"/>
					<path class="st1" d="M1644.9,2033.9c-10-67.3,22.4-114.1,56-141.4c-21.6,23.7-39.4,54.9-48.6,88.6       C1648.3,1995,1644.9,2013.1,1644.9,2033.9z"/>
					<path class="st1" d="M1715.6,2184.5c-56-51-70.7-106.2-70.7-149.8c0.5,3.4,1.1,7.1,1.8,10.8c5.2,25,21,100.4,69.9,102.8       c5,5.8,10.5,11.3,16.6,16.8c115.1,104.3,317.3,126.1,466.8,126.1c22.1,0,42.9-0.3,61.8-1c5.8-2.9,12.6-5.3,20.5-7.4l0.3,0.3       c1.3,1.1,9.7,8.4,21.8,22.1c-16.8,2.4-26.8,6-32.6,9.5l-2.6,1.6h-3.2c-20.2,0.8-42.3,1.3-66,1.3       C2046,2317.5,1836.8,2294.6,1715.6,2184.5z"/>
					<path class="st1" d="M1639.6,1977.3c19.4-70.7,72.8-130.1,127.2-141.4c44.2-8.9,111.7-33.6,171.4-55.5       c48.6-17.6,90.4-33.1,118-39.7c12.1-2.6,22.6-6.3,31.5-10.5c18.9-8.4,24.5-16.3,24.5-16.6c77.8-125.9,169.3-224.7,272.1-294.4       c62.8-42.6,129.3-73.9,197.4-92.8c27.6-7.6,55.7-13.1,83.1-16.8c20.2-2.4,36.5-2.9,48.1-3.1c13.4-136.9,9.2-238.1,9.2-239.2       c-3.2-56.2-1.3-123,42.1-138.2c46.3-16.3,96,44.9,115.4,72c61.8,92,111.2,249.4,113.3,256c42.3,162.4,109.9,258.9,110.4,260       c167.2,204,257.6,740.4,261.6,763l3.4,20.8l-963.2,390.8l-4.2-33.9c-23.6-194-118.5-301.2-145.4-328       c-148.5,5.3-406.6-6.8-548.6-135.6C1618.6,2113.8,1626.8,2023.9,1639.6,1977.3z M1644.9,2034.7c0,43.6,14.7,98.8,70.7,149.8       c121.2,110.1,330.4,133,484.5,133c23.7,0,45.7-0.5,66-1.3h3.2l2.6-1.6c5.8-3.4,15.8-7.1,32.6-9.5       c38.4,42,115.7,144.3,143.8,312.5l860.9-349.6c-18.4-101.2-105.9-546.4-247.6-719.1c-3.9-5.8-74.9-106.7-119.1-277.3       c-0.3-0.3-48.9-155.6-106.2-240.5c-17.6-24.7-42.9-48.6-54.2-51.8c-2.9,4.7-11,24.2-7.4,85.2c0,5.3,4.8,118.8-12.1,272.3       c-2.1,18.1-4.2,37.1-7.1,56.2c-23.4,170.1,8.9,261.8,9.2,262.8c5,13.4-2.1,28.7-15.8,33.6c-13.4,5-28.4-1.8-33.6-15.5       c-1.3-4.2-37.3-103.6-11.8-288.3c1.3-8.9,2.4-17.6,3.4-26.3c-9.2,0.3-21,0.8-35.5,2.6c-25,3.2-50.5,8.2-75.4,15.2       c-62.8,17.3-124.1,46.3-182.2,85.7c-96.5,65.2-183,158.8-256.6,278.1c-1,2.1-6.6,11-20.8,21.3c-4.7-7.3-7.3-11.8-7.6-12.1       l-3.2-5.5l-28.6-4.2l-3.7,1.8c-9.7,4.5-21.3,8.4-34.2,11.3c-26.6,6.3-70.2,22.3-116.2,39.2c-60.2,22.1-128.3,46.8-173.5,56       c-23.7,5-47.6,20.8-68.1,43.1c-0.3,0.3-0.5,0.5-0.5,0.5c-33.7,27.4-66,74.1-56,141.4       C1644.6,2034.1,1644.6,2034.4,1644.9,2034.7z"/>
				</g>
			</g>
			<path class="st1" d="M2265.4,2329.3c-9.2,0-18.1-4.8-23-13.4c-7.1-12.6-2.6-28.7,10.1-35.8c48.5-27.1,154-15,182.9-11     c96-13.7,109.1-101.7,109.1-186.3c0-16.1,4.3-30,7.8-41.1c1.8-5.7,4.4-14.2,4-16.8c-1.5-2.4-15.8-17.3-127.2-32     c-220.2-28.9-329.7-214.9-334.3-222.8c-7.3-12.6-3-28.6,9.6-35.9s28.6-3,35.9,9.6c1,1.7,101.7,171.5,295.7,196.9     c102.6,13.5,147.3,28.8,164.8,56.3c13.9,21.7,6.8,44,1.8,60.4c-2.8,8.9-5.4,17.4-5.4,25.5c0,54.3,0,219.5-158.5,238.9l-3.5,0.4     l-3.5-0.5c-48-6.9-127.3-10.2-153.3,4.4C2274.2,2328.2,2269.8,2329.3,2265.4,2329.3z"/>
			<path class="st1" d="M2715.5,2163c22.6,0-1.9,67.9-15.4,67.9c0,0-32.9-2.2-46-17.5c-13.2-15.4,11-54.8,11-54.8L2715.5,2163z"/>
			<path class="st1" d="M2351.1,1826c-7.9,0-15.6-3.5-20.8-10.2c-43.2-56,7.9-138.6,13.8-147.9c7.9-12.2,24.2-15.7,36.4-7.8     c12.2,7.9,15.6,24.1,7.8,36.3l0,0c-12.4,19.3-32.7,66.1-16.4,87.2c8.9,11.5,6.7,28-4.7,36.9     C2362.4,1824.3,2356.7,1826,2351.1,1826z"/>
			<path class="st1" d="M2366.6,1839.7c-29.4,0-66.1-8-79.6-21.1c-7.2-7-10.5-16.4-9-25.8c2.3-14.4,15.9-24.2,30.1-21.8     c6.7,1.1,12.4,4.6,16.4,9.5c10.4,3.8,37,9,53.4,5.9c13.8-2.7,41.9-13.2,65.4-22.6c-46.9-56-80.1-63.9-80.5-64l-9.5-2.1l-1.5-1.9     c-2,1.1-4.3,2.6-6,4c-11.2,9.2-27.7,7.7-36.9-3.5c-9.2-11.1-7.8-27.5,3.2-36.8c5.7-4.8,26.1-20.3,48.4-17.7     c7.8,0.9,14.9,3.9,20.9,8.6c20,6.6,68.4,29.8,125.2,109.2l19,26.5l-29.9,12.9c-7.8,3.4-76.8,33-107.7,39     C2381.6,1839.2,2374.3,1839.7,2366.6,1839.7z"/>
			<path class="st1" d="M2363.5,1817.8c-12.5,0-23.5-8.9-25.8-21.6c-1.3-7,0.4-13.9,4.1-19.4c2.6-12.8,4.7-51.9,5.1-83.8     c0.2-14.5,11.9-25.9,26.6-25.9c14.5,0.2,26.1,12.1,25.9,26.6c-1.5,108.6-9.3,119.7-31.2,123.6     C2366.7,1817.6,2365.1,1817.8,2363.5,1817.8z"/>
			<path class="st1" d="M2391.9,1457.1c-11,0-21.2-7-24.9-18c-17.7-52.9-5.9-264,2.7-385.1c1-14.5,13.7-25.3,28.1-24.4     c14.5,1,25.4,13.6,24.3,28.1c-13.5,190.7-15.6,333.8-5.3,364.7c4.6,13.8-2.8,28.7-16.6,33.3     C2397.5,1456.6,2394.7,1457.1,2391.9,1457.1z"/>
			<path class="st1" d="M2667.4,1355.7c-10.4,0-20.3-6.3-24.4-16.5c-0.3-0.8-32.1-80.1-48.4-115.2c-9.4-14.6-76.4-119.3-98.1-175     c-21.4-33.9-50.7-66.7-64.4-72.5c-2.5,4.9-7.1,18.3-7.9,50.9l-2.2,30c-1.1,14.5-13.8,25.2-28.2,24.3     c-14.5-1.1-25.3-13.7-24.3-28.2l2.2-28.7c0.8-37.1,6.5-89.5,45.5-100.1c47.8-13,99,56.3,125.3,98.7l2.3,4.6     c19.6,52.5,94.1,167.8,94.9,169l1.7,3.1c16.7,35.6,49,116.2,50.3,119.6c5.4,13.5-1.2,28.8-14.6,34.2     C2673.9,1355,2670.7,1355.7,2667.4,1355.7z"/>
			<path class="st1" d="M2586.5,1370c-14.1,0-25.8-11.2-26.3-25.5l0,0c0-0.6-2.7-63.5-44.6-119.9c-1.9-2.8-28.9-43.7-38-102.9     c-2.8-12.7-14.6-53.7-32.5-72.9l-3-3.9c-3.7-5.7-9-11.9-13.3-15.8c-2,4.9-4.7,13.9-6.8,29.2c-1.5,13.1-12.6,23.4-26.1,23.4     c-14.5,0-26.3-11.5-26.3-26l0.2-4c4-29.8,13.3-70.2,46.7-77.5c33.3-7.2,59.7,26.8,68.8,40.5c29.9,33.5,42.7,91,44.1,97.5     c7.5,48.4,29.1,81.7,29.3,82c51.3,69.1,54.1,145.4,54.1,148.6c0.4,14.5-11,26.6-25.5,27C2587,1370,2586.7,1370,2586.5,1370z"/>
		</g>
	</g>
</g>
</svg>